<?xml version="1.0" standalone="no"?>
<!DOCTYPE svg PUBLIC "-//W3C//DTD SVG 20010904//EN"
 "http://www.w3.org/TR/2001/REC-SVG-20010904/DTD/svg10.dtd">
<svg version="1.0" xmlns="http://www.w3.org/2000/svg"
 width="2158.000000pt" height="500.000000pt" viewBox="0 0 2158.000000 500.000000"
 preserveAspectRatio="xMidYMid meet">

<g transform="translate(0.000000,500.000000) scale(0.100000,-0.100000)"
fill="#000000" stroke="none">
<path d="M822 4985 c-143 -45 -210 -219 -136 -354 15 -29 40 -61 55 -71 86
-62 1218 -732 1266 -750 150 -56 136 -55 833 -55 639 0 646 1 725 23 100 28
223 89 295 145 98 77 669 672 690 719 13 29 20 65 20 108 0 103 -42 174 -131
222 l-44 23 -1765 2 c-1452 1 -1773 -1 -1808 -12z"/>
<path d="M7460 3777 c0 -2 204 -522 454 -1157 l453 -1155 406 -3 405 -2 20 52
c11 29 212 549 446 1156 234 607 426 1105 426 1108 0 2 -170 4 -377 4 l-378 0
-265 -829 c-146 -456 -268 -827 -271 -823 -5 6 -185 554 -489 1495 l-51 157
-389 0 c-215 0 -390 -1 -390 -3z"/>
<path d="M14490 3495 l0 -285 380 0 380 0 0 -875 0 -875 370 0 370 0 0 875 0
875 380 0 380 0 0 285 0 285 -1130 0 -1130 0 0 -285z"/>
<path d="M6116 3169 c-328 -43 -580 -208 -710 -466 -105 -209 -115 -531 -23
-758 69 -171 214 -335 366 -414 141 -73 339 -111 579 -111 403 0 662 87 838
283 57 64 138 176 131 183 -2 3 -150 18 -328 35 l-323 29 -46 -44 c-25 -25
-72 -58 -105 -73 -51 -24 -73 -28 -150 -28 -103 0 -155 17 -222 71 -62 51 -98
121 -117 227 l-7 37 672 0 672 0 -6 148 c-5 149 -20 241 -56 345 -69 198 -213
358 -403 447 -174 82 -511 121 -762 89z m322 -384 c121 -36 188 -128 218 -297
l6 -38 -331 0 -330 0 5 33 c22 123 68 208 142 259 83 57 188 73 290 43z"/>
<path d="M10826 3169 c-328 -43 -580 -208 -710 -466 -105 -209 -115 -531 -23
-758 69 -171 214 -335 366 -414 141 -73 339 -111 579 -111 403 0 662 87 838
283 57 64 138 176 131 183 -2 3 -150 18 -328 35 l-323 29 -46 -44 c-25 -25
-72 -58 -105 -73 -51 -24 -73 -28 -150 -28 -103 0 -155 17 -222 71 -62 51 -98
121 -117 227 l-7 37 672 0 672 0 -6 148 c-5 149 -20 241 -56 345 -69 198 -213
358 -403 447 -174 82 -511 121 -762 89z m322 -384 c121 -36 188 -128 218 -297
l6 -38 -331 0 -330 0 5 33 c22 123 68 208 142 259 83 57 188 73 290 43z"/>
<path d="M13468 3170 c-80 -14 -161 -40 -218 -72 -69 -38 -180 -128 -225 -182
l-35 -41 0 133 0 132 -315 0 -315 0 0 -840 0 -840 334 0 334 0 4 478 c5 523 8
553 66 637 80 115 261 140 362 49 74 -67 74 -64 78 -646 l3 -518 335 0 335 0
-4 623 c-4 686 -3 678 -69 816 -63 131 -199 231 -363 266 -74 15 -229 18 -307
5z"/>
<path d="M17570 3173 c-344 -37 -616 -214 -755 -491 -62 -125 -78 -204 -78
-387 -1 -146 2 -168 27 -250 94 -308 331 -517 680 -598 124 -28 427 -30 560
-4 302 61 522 219 642 462 69 140 87 222 87 400 0 179 -18 262 -88 400 -158
313 -485 480 -930 473 -60 0 -126 -3 -145 -5z m304 -467 c88 -43 151 -131 175
-244 14 -68 14 -241 0 -318 -23 -123 -87 -211 -188 -257 -67 -31 -187 -30
-259 2 -67 30 -134 104 -162 178 -63 167 -44 426 39 540 91 125 257 167 395
99z"/>
<path d="M2193 1240 c-70 -10 -187 -47 -243 -75 -50 -25 -1169 -696 -1210
-725 -14 -10 -39 -42 -54 -71 -79 -144 1 -326 157 -359 37 -8 546 -10 1802 -8
l1750 3 44 23 c89 48 131 119 131 222 0 43 -7 79 -20 108 -21 47 -592 642
-690 719 -72 56 -195 117 -295 145 -78 22 -92 22 -700 24 -341 1 -643 -1 -672
-6z"/>
</g>
</svg>
